<svg width="60" height="60" viewBox="0 0 60 60" fill="none" xmlns="http://www.w3.org/2000/svg">
<path d="M8.0004 53.999C6.9 53.999 6 53.099 6 51.9986V7.99942C6 6.89902 6.9 5.99902 8.0004 5.99902H52.0008C53.1 5.99902 54 6.89902 54 7.99942V51.9998C54 53.099 53.1 53.999 51.9996 53.999H8.0004Z" fill="url(#paint0_linear_451_183)"/>
<path d="M38.3998 43.1994C39.3814 44.8014 40.4482 46.3362 42.7066 46.3362C44.6038 46.3362 45.5998 45.3882 45.5998 44.0778C45.5998 42.5082 44.5702 41.9514 42.4822 41.0382L41.3374 40.5474C38.0338 39.1398 35.8378 37.3758 35.8378 33.6486C35.8378 30.2142 38.4538 27.6006 42.5434 27.6006C45.4546 27.6006 47.5474 28.6134 49.0558 31.2666L45.4906 33.5562C44.7058 32.1486 43.8586 31.5942 42.5434 31.5942C41.2018 31.5942 40.3522 32.445 40.3522 33.5562C40.3522 34.9302 41.203 35.4858 43.1674 36.3366L44.3122 36.8274C48.2038 38.4942 50.3998 40.1946 50.3998 44.019C50.3998 48.141 47.161 50.3994 42.8122 50.3994C38.5594 50.3994 36.1438 48.255 34.7998 45.5994L38.3998 43.1994Z" fill="#1C1C1C"/>
<path d="M21.7716 43.315C22.5 44.6062 23.6076 45.5986 25.2 45.5986C26.7228 45.5986 27.6 45.0034 27.6 42.6874V27.5986H32.4V43.417C32.4 48.2146 29.5872 50.3986 25.4808 50.3986C21.7704 50.3986 19.092 47.911 18 45.5986L21.7716 43.315Z" fill="#1C1C1C"/>
<defs>
<linearGradient id="paint0_linear_451_183" x1="30" y1="5.99902" x2="30" y2="53.999" gradientUnits="userSpaceOnUse">
<stop stop-color="#E02093"/>
<stop offset="1" stop-color="#BE0273"/>
</linearGradient>
</defs>
</svg>
