<svg width="24" height="24" viewBox="0 0 24 24" fill="none" xmlns="http://www.w3.org/2000/svg">
<path d="M6.34783 22H2V8.36364H6.34783V22ZM4.17478 6.54545C2.97217 6.54545 2 5.52636 2 4.27182C2 3.01727 2.97391 2 4.17478 2C5.37304 2 6.34783 3.01909 6.34783 4.27182C6.34783 5.52636 5.37304 6.54545 4.17478 6.54545ZM22 22H17.82V15.3636C17.82 13.7809 17.7913 11.7455 15.647 11.7455C13.4704 11.7455 13.1357 13.4691 13.1357 15.2491V22H8.95652V8.35364H12.9687V10.2182H13.0252C13.5835 9.14545 14.9478 8.01455 16.9826 8.01455C21.2174 8.01455 22 10.8409 22 14.5155V22Z" fill="#292929"/>
</svg>
