<svg width="24" height="24" viewBox="0 0 24 24" fill="none" xmlns="http://www.w3.org/2000/svg">
<path d="M13.9996 10.325V9.125C14.5496 8.91167 15.1121 8.74167 15.6871 8.615C16.2621 8.48833 16.8663 8.425 17.4996 8.425C17.9329 8.425 18.3579 8.45833 18.7746 8.525C19.1913 8.59167 19.5996 8.675 19.9996 8.775V9.875C19.5996 9.725 19.1954 9.6125 18.7871 9.5375C18.3788 9.4625 17.9496 9.425 17.4996 9.425C16.8663 9.425 16.2579 9.50417 15.6746 9.6625C15.0913 9.82083 14.5329 10.0417 13.9996 10.325ZM13.9996 15.825V14.6C14.5496 14.395 15.1121 14.2313 15.6871 14.1088C16.2621 13.9863 16.8663 13.925 17.4996 13.925C17.9329 13.925 18.3579 13.9583 18.7746 14.025C19.1913 14.0917 19.5996 14.175 19.9996 14.275V15.375C19.5996 15.225 19.1954 15.1125 18.7871 15.0375C18.3788 14.9625 17.9496 14.925 17.4996 14.925C16.8663 14.925 16.2579 15 15.6746 15.15C15.0913 15.3 14.5329 15.525 13.9996 15.825ZM13.9996 13.075V11.875C14.5496 11.6617 15.1121 11.4917 15.6871 11.365C16.2621 11.2383 16.8663 11.175 17.4996 11.175C17.9329 11.175 18.3579 11.2083 18.7746 11.275C19.1913 11.3417 19.5996 11.425 19.9996 11.525V12.625C19.5996 12.475 19.1954 12.3625 18.7871 12.2875C18.3788 12.2125 17.9496 12.175 17.4996 12.175C16.8663 12.175 16.2579 12.2542 15.6746 12.4125C15.0913 12.5708 14.5329 12.7917 13.9996 13.075ZM12.7746 18.425C13.6082 18.0083 14.4272 17.6958 15.2314 17.4875C16.0356 17.2792 16.89 17.175 17.7945 17.175C18.4312 17.175 19.0871 17.225 19.7621 17.325C20.4371 17.425 21.0079 17.5583 21.4746 17.725V6.99745C20.9079 6.69915 20.3136 6.49167 19.6916 6.375C19.0695 6.25833 18.4371 6.2 17.7945 6.2C16.89 6.2 16.0147 6.3375 15.1687 6.6125C14.3226 6.8875 13.5246 7.27288 12.7746 7.76863V18.425ZM12.1041 21.3C11.2417 20.6825 10.3146 20.1823 9.32266 19.7994C8.33076 19.4165 7.28974 19.225 6.19961 19.225C5.64229 19.225 5.09227 19.3038 4.54953 19.4613C4.00678 19.6189 3.46514 19.7818 2.92461 19.95C2.38378 20.2333 1.84023 20.2237 1.29398 19.921C0.747734 19.6184 0.474609 19.128 0.474609 18.45V6.9577C0.474609 6.55257 0.566276 6.16917 0.749609 5.8075C0.932943 5.44583 1.20794 5.17667 1.57461 5C2.32461 4.7 3.07908 4.47917 3.83801 4.3375C4.59694 4.19583 5.36839 4.125 6.15236 4.125C7.20576 4.125 8.23532 4.27083 9.24103 4.5625C10.2468 4.85417 11.1829 5.30833 12.0496 5.925C12.9163 5.325 13.8359 4.875 14.8086 4.575C15.7812 4.275 16.7958 4.125 17.8524 4.125C18.638 4.125 19.4048 4.2 20.1527 4.35C20.9007 4.5 21.6512 4.71964 22.4044 5.00892C22.7679 5.17964 23.0454 5.44583 23.2371 5.8075C23.4288 6.16917 23.5246 6.55833 23.5246 6.975V18.725C23.5246 19.3406 23.2469 19.782 22.6915 20.0492C22.1361 20.3164 21.5888 20.2833 21.0496 19.95C20.5257 19.7651 19.9916 19.598 19.4473 19.4488C18.9029 19.2996 18.3512 19.225 17.7922 19.225C16.7551 19.225 15.761 19.4248 14.81 19.8244C13.859 20.224 12.9571 20.7158 12.1041 21.3Z" fill="#BE0273"/>
</svg>
