<svg width="24" height="24" viewBox="0 0 24 24" fill="none" xmlns="http://www.w3.org/2000/svg">
<path d="M11.8752 22.3986L16.6081 9.89863H18.7002L23.5502 22.3986H21.2919L20.2252 19.0986H15.2617L14.0187 22.3986H11.8752ZM15.8002 17.2986H19.5002L17.6684 12.2486H17.6252L15.8002 17.2986ZM3.6752 19.2736L2.2752 17.8486L7.5752 12.5486C6.9152 11.785 6.3252 11.0149 5.8052 10.2384C5.2852 9.46189 4.84186 8.6653 4.4752 7.84863H6.7252C6.99186 8.4153 7.31127 8.95336 7.68342 9.46281C8.05555 9.97224 8.46115 10.5009 8.9002 11.0486C9.6855 10.2244 10.3402 9.37247 10.8642 8.49293C11.3882 7.6134 11.8419 6.69863 12.2252 5.74863H0.575195V3.67363H7.8502V1.59863H9.9252V3.67363H17.2002V5.74863H14.2869C13.8958 6.98197 13.3835 8.16947 12.7502 9.31113C12.1169 10.4528 11.3335 11.5403 10.4002 12.5736L12.9502 15.1486L12.2252 17.2486L8.8752 14.0736L3.6752 19.2736Z" fill="#BE0273"/>
</svg>
