<svg width="60" height="60" viewBox="0 0 60 60" fill="none" xmlns="http://www.w3.org/2000/svg">
<path d="M51.25 6.24902H8.75L12.5 48.749L30 53.749L47.5 48.749L51.25 6.24902Z" fill="url(#paint0_linear_452_198)"/>
<path d="M30 9.99902V49.874L44 45.874L47.125 9.99902H30Z" fill="url(#paint1_linear_452_198)"/>
<path d="M41.375 16.249H30V21.249H36.125L35.75 26.249H30V31.249H35.5L35.125 36.874L30 38.624V43.874L39.875 40.624L40.75 26.249L41.375 16.249Z" fill="#141414"/>
<path d="M30 16.249V21.249H18.875L18.5 16.249H30ZM24.25 26.249L24.5 31.249H30V26.249H24.25ZM24.75 33.749H19.75L20.125 40.624L30 43.874V38.624L24.875 36.874L24.75 33.749Z" fill="#141414"/>
<defs>
<linearGradient id="paint0_linear_452_198" x1="30" y1="6.24902" x2="30" y2="53.749" gradientUnits="userSpaceOnUse">
<stop stop-color="#E02093"/>
<stop offset="1" stop-color="#BE0273"/>
</linearGradient>
<linearGradient id="paint1_linear_452_198" x1="38.5625" y1="9.99902" x2="38.5625" y2="49.874" gradientUnits="userSpaceOnUse">
<stop stop-color="#E02093"/>
<stop offset="1" stop-color="#BE0273"/>
</linearGradient>
</defs>
</svg>
