<svg width="60" height="60" viewBox="0 0 60 60" fill="none" xmlns="http://www.w3.org/2000/svg">
<path d="M51.25 6.24902H8.75L12.5 48.749L30 53.749L47.5 48.749L51.25 6.24902Z" fill="url(#paint0_linear_451_176)"/>
<path d="M30 9.99902V49.874L44 45.874L47.125 9.99902H30Z" fill="url(#paint1_linear_451_176)"/>
<path d="M30 31.249V26.249H40.75L39.875 40.624L30 43.874V38.624L35.125 36.874L35.5 31.249H30ZM41.125 21.249L41.5 16.249H30V21.249H41.125Z" fill="#1C1C1C"/>
<path d="M30 38.624V43.874L20.125 40.624L19.625 33.749H24.625L24.875 36.874L30 38.624ZM23.875 21.249H30V16.249H18.625L19.5 31.249H30V26.249H24.25L23.875 21.249Z" fill="#1C1C1C"/>
<defs>
<linearGradient id="paint0_linear_451_176" x1="30" y1="6.24902" x2="30" y2="53.749" gradientUnits="userSpaceOnUse">
<stop stop-color="#E02093"/>
<stop offset="1" stop-color="#BE0273"/>
</linearGradient>
<linearGradient id="paint1_linear_451_176" x1="38.5625" y1="9.99902" x2="38.5625" y2="49.874" gradientUnits="userSpaceOnUse">
<stop stop-color="#E02093"/>
<stop offset="1" stop-color="#BE0273"/>
</linearGradient>
</defs>
</svg>
