<svg width="60" height="60" viewBox="0 0 60 60" fill="none" xmlns="http://www.w3.org/2000/svg">
<path d="M30 54.9365C43.7726 54.9365 54.9375 43.7716 54.9375 29.999C54.9375 16.2264 43.7726 5.06152 30 5.06152C16.2274 5.06152 5.0625 16.2264 5.0625 29.999C5.0625 43.7716 16.2274 54.9365 30 54.9365Z" fill="#292929"/>
<path d="M10.001 29.999C10.001 37.919 14.601 44.7565 21.2735 47.999L11.731 21.859C10.6222 24.3478 10.001 27.094 10.001 29.999ZM43.5047 28.9915C43.5047 26.5203 42.176 24.804 41.4172 23.4765C40.401 21.8153 39.4472 20.4303 39.4472 18.7865C39.4472 16.9553 41.286 15.2365 43.2485 15.2365C43.3372 15.2365 43.4172 15.244 43.506 15.2465C39.951 11.979 35.2097 9.99902 30.001 9.99902C23.2647 9.99902 17.3097 13.3315 13.686 18.4353C13.971 18.5278 14.0697 18.484 14.4497 18.484C16.536 18.484 19.7797 18.234 19.7797 18.234C20.8547 18.1628 20.986 19.749 19.9035 19.879C19.9035 19.879 18.8235 20.0103 17.6185 20.069L25.0322 42.2915L29.4072 29.1653L26.1535 20.1053C25.0772 20.0478 24.0547 19.9153 24.0547 19.9153C22.9772 19.8453 23.1022 18.1965 24.1772 18.2703C24.1772 18.2703 27.4872 18.5203 29.4485 18.5203C31.5422 18.5203 34.7785 18.2703 34.7785 18.2703C35.8547 18.199 35.9847 19.7853 34.9085 19.9153C34.9085 19.9153 33.821 20.0465 32.6185 20.1053L39.9822 42.1178L41.981 35.4603C42.9985 32.8603 43.5047 30.7103 43.5047 28.9915ZM30.351 31.744L24.351 49.184C26.146 49.7165 28.0385 49.999 30.001 49.999C32.3272 49.999 34.5622 49.594 36.646 48.8653C36.596 48.7765 36.5397 48.6865 36.4985 48.5903L30.351 31.744ZM47.5535 20.3965C47.6422 21.034 47.6885 21.7203 47.6885 22.4528C47.6885 24.4878 47.306 26.7665 46.1647 29.624L40.0585 47.2928C46.006 43.8278 49.9997 37.3765 49.9997 29.999C49.9997 26.5228 49.111 23.254 47.5535 20.3965Z" fill="#1C1C1C"/>
<path d="M5 29.999C5 43.779 16.2125 54.999 29.9988 54.999C43.7875 54.999 55 43.779 55 29.999C55 16.219 43.7875 4.99902 30 4.99902C16.2125 4.99902 5 16.219 5 29.999ZM7.49375 29.999C7.49375 17.594 17.5863 7.50027 29.9988 7.50027C42.4113 7.50027 52.5063 17.594 52.5063 29.999C52.5063 42.404 42.4113 52.5003 30 52.5003C17.59 52.5003 7.49375 42.404 7.49375 29.999Z" fill="#1C1C1C"/>
</svg>
