<svg width="38" height="38" viewBox="0 0 38 38" fill="none" xmlns="http://www.w3.org/2000/svg">
<path d="M13.5207 35.5949C14.0611 35.3623 14.4395 34.825 14.4395 34.1995V30.0955C14.4395 29.9458 14.4517 29.79 14.4707 29.6319C14.4601 29.635 14.4502 29.6372 14.4395 29.6395C14.4395 29.6395 12.1595 29.6395 11.7035 29.6395C10.5635 29.6395 9.57553 29.1835 9.11953 28.2715C8.58753 27.2835 8.35953 25.6115 6.99153 24.6995C6.76353 24.5475 6.91553 24.3195 7.37153 24.3195C7.82753 24.3955 8.81553 25.0035 9.42353 25.8395C10.1075 26.6755 10.7915 27.3595 12.0075 27.3595C13.8977 27.3595 14.9107 27.2645 15.5203 26.9377C16.2301 25.8821 17.2128 25.0795 18.2395 25.0795V25.0605C13.9319 24.9222 11.1799 23.4904 9.89853 21.2795C7.11313 21.3114 4.68797 21.5873 3.30401 21.8168C3.25993 21.5683 3.22193 21.3183 3.18925 21.0667C4.55497 20.8418 6.86993 20.575 9.53145 20.5241C9.44633 20.3143 9.37261 20.0992 9.31029 19.8788C6.64193 19.7436 4.33913 19.8492 3.08817 19.9526C3.07297 19.7002 3.05245 19.4487 3.04941 19.1933C4.30265 19.0907 6.54313 18.9881 9.14309 19.109C9.08305 18.729 9.04429 18.3406 9.04429 17.9363C9.04429 16.6443 9.50029 15.2763 10.3363 14.1363C9.95629 12.8443 9.42429 10.1083 10.4883 9.12029C12.5403 9.12029 13.9843 10.1083 14.6683 10.7163C15.9595 10.1835 17.4035 9.87953 18.9995 9.87953C20.5955 9.87953 22.0395 10.1835 23.2555 10.7155C23.9395 10.1075 25.3835 9.11953 27.4355 9.11953C28.5755 10.1835 27.9675 12.9195 27.5875 14.1355C28.4235 15.2755 28.8795 16.5675 28.8035 17.9355C28.8035 18.3034 28.7693 18.6583 28.7199 19.0064C31.3792 18.8757 33.6805 18.9805 34.955 19.0839C34.9535 19.34 34.9299 19.5901 34.9162 19.8431C33.6463 19.7383 31.2872 19.6303 28.5634 19.7755C28.4957 20.0308 28.4137 20.2794 28.3164 20.5203C31.0113 20.5552 33.3818 20.8159 34.8129 21.0439C34.7802 21.2962 34.7422 21.5463 34.6981 21.794C33.245 21.5615 30.7681 21.2894 27.9501 21.2757C26.6847 23.463 23.9829 24.8895 19.7595 25.056V25.0795C21.7355 25.0795 23.5595 28.0435 23.5595 30.0955V34.1995C23.5595 34.825 23.938 35.3623 24.4784 35.5949C31.4407 33.2906 36.4795 26.7242 36.4795 18.9995C36.4795 9.36121 28.6386 1.51953 18.9995 1.51953C9.36045 1.51953 1.51953 9.36121 1.51953 18.9995C1.51953 26.7242 6.55833 33.2906 13.5207 35.5949Z" fill="url(#paint0_linear_538_46)"/>
<defs>
<linearGradient id="paint0_linear_538_46" x1="18.9995" y1="1.51953" x2="18.9995" y2="35.5949" gradientUnits="userSpaceOnUse">
<stop stop-color="#E02093"/>
<stop offset="1" stop-color="#BE0273"/>
</linearGradient>
</defs>
</svg>
