<svg width="60" height="60" viewBox="0 0 60 60" fill="none" xmlns="http://www.w3.org/2000/svg">
<path d="M32.4032 56.3986H32.3996C30.338 56.3986 28.16 56.1898 25.9244 55.7782C25.6148 55.7194 25.322 55.6282 25.028 55.5346L24.7952 55.4602C24.782 55.459 24.7088 55.4362 24.6368 55.4134C24.2168 55.2826 23.888 55.1746 23.5544 55.0594C23.5328 55.051 23.4044 55.0042 23.3828 54.9958C23.132 54.9046 22.8308 54.7918 22.5404 54.679C22.526 54.6754 22.4588 54.649 22.3928 54.6214C21.9872 54.4594 21.6716 54.3274 21.3572 54.1906C21.3572 54.1906 21.2444 54.1378 21.242 54.1366C20.8976 53.9818 20.6204 53.8546 20.3504 53.719C20.324 53.707 20.1332 53.6122 20.108 53.5978C19.838 53.4682 19.6604 53.3722 19.4924 53.2786C19.3772 53.2222 19.2404 53.1538 19.1024 53.077C18.8768 52.9558 18.6332 52.8166 18.3944 52.6762L18.1868 52.5598C17.804 52.3294 17.4884 52.135 17.1728 51.931L16.3124 51.3562C16.2884 51.3406 16.2536 51.3142 16.2164 51.2854C16.1372 51.2326 16.0616 51.1774 15.9848 51.121C15.7592 50.959 15.5612 50.8174 15.3704 50.6734L14.2208 49.7686C13.9976 49.5838 13.7744 49.393 13.5524 49.1998C13.5392 49.1866 13.3736 49.0426 13.3604 49.0294C13.184 48.8806 12.9536 48.6634 12.7244 48.4474L12.5396 48.2746L12.4496 48.1894C12.2636 48.0142 12.0836 47.8282 11.9048 47.6446L11.6936 47.437C11.4644 47.1982 11.2496 46.9678 11.0396 46.7362C11.0048 46.7026 10.9724 46.6654 10.9436 46.6318C10.7204 46.3834 10.5008 46.1314 10.2932 45.8782L10.196 45.7642C10.1912 45.7582 10.112 45.6658 10.1072 45.6586L9.42319 44.7946C9.26839 44.5978 9.09439 44.365 8.92159 44.125L8.84719 44.0194C8.83999 44.0086 8.83159 43.999 8.82439 43.9894C8.61559 43.7086 8.42599 43.4218 8.23759 43.1314C8.20279 43.0834 8.14759 42.9994 8.09359 42.9118L7.90399 42.6106C7.82359 42.4858 7.74439 42.3598 7.66999 42.235C7.64719 42.2062 7.59199 42.1126 7.53679 42.0214L7.15039 41.3626C7.05079 41.1838 6.99319 41.077 6.93679 40.9618C6.91279 40.9318 6.85999 40.837 6.82039 40.7494C6.79519 40.717 6.72439 40.579 6.66199 40.4422L6.61999 40.3654C6.54799 40.2298 6.47719 40.093 6.41359 39.9514C3.04759 33.169 2.09959 22.0762 7.00039 14.9386C7.19239 14.635 8.90599 11.9638 11.198 9.90584C11.6564 9.49424 12.3512 9.49664 12.8072 9.91064C13.2632 10.3258 13.3316 11.0182 12.9644 11.5126C9.32839 16.4266 10.5464 29.8546 15.2144 36.2866C15.3884 36.5266 15.56 36.7594 15.7376 36.9898C15.8144 37.0858 15.884 37.1746 15.9452 37.2646L16.4504 37.8826C16.7264 38.2102 16.9328 38.4514 17.1476 38.689C17.3816 38.947 17.5856 39.1642 17.7932 39.3766L18.6416 40.219C18.9332 40.4926 19.1732 40.7158 19.4144 40.9342C19.4468 40.9582 19.4732 40.9786 19.4996 41.0026C19.7132 41.1898 19.9232 41.3722 20.1452 41.5522L20.4056 41.7658C20.5436 41.8798 20.6948 41.9962 20.8448 42.1138C21.0128 42.2398 21.1172 42.3202 21.2168 42.3994C21.3824 42.5206 21.5816 42.6658 21.7832 42.8086L21.902 42.8938C22.1972 43.099 22.3988 43.2358 22.6028 43.3678C22.7192 43.4482 22.7804 43.4926 22.8488 43.5346C23.1524 43.7302 23.4524 43.9126 23.75 44.0926C23.8472 44.1442 23.9528 44.2054 24.0512 44.2726L25.0292 44.7982C25.2452 44.9134 25.4132 45.0034 25.5836 45.085C25.6016 45.0922 25.796 45.187 25.8128 45.1954C26.0588 45.3166 26.3024 45.4294 26.5544 45.5482L26.7176 45.6166C26.9996 45.7414 27.2888 45.8662 27.5804 45.9826L27.8432 46.0846C28.0724 46.1746 28.3352 46.2766 28.6004 46.3678L28.7372 46.417C29.0348 46.5202 29.3384 46.6222 29.6456 46.7158L30.092 46.8526C30.326 46.9246 30.5564 46.9942 30.7904 47.0482C40.3124 49.237 48.6308 47.0782 53.0456 41.2726C53.4068 40.7986 54.0644 40.663 54.584 40.9498C55.106 41.239 55.334 41.869 55.1228 42.4258C55.0676 42.5662 49.5944 56.3974 32.4032 56.3986Z" fill="#1C1C1C"/>
<path d="M39.0953 39.5989C37.5893 39.5989 36.0005 39.4597 34.3637 39.1849C34.0289 39.1321 33.7277 39.0289 33.4625 38.9389L32.9381 38.7649C32.7101 38.6893 32.4821 38.6089 32.2577 38.5285C32.2469 38.5249 32.1281 38.4805 32.1173 38.4757L31.9793 38.4253C31.6709 38.3065 31.4177 38.1997 31.1681 38.0917L30.7865 37.9249C30.5405 37.8109 30.2933 37.6969 30.0497 37.5745C30.0317 37.5661 29.9477 37.5265 29.9297 37.5157L29.5637 37.3249C29.3993 37.2373 29.3309 37.2001 29.2625 37.1581C29.1137 37.0849 28.8869 36.9541 28.6697 36.8233C28.3361 36.6301 28.1021 36.4849 27.8633 36.3277L27.7349 36.2425L27.6185 36.1657C27.5045 36.0901 27.3929 36.0181 27.2849 35.9413C27.2489 35.9197 27.2141 35.8981 27.1805 35.8729C26.8601 35.6425 26.5445 35.4073 26.2361 35.1625L26.1281 35.0797C25.7309 34.7677 25.4297 34.5157 25.1357 34.2541C25.1105 34.2325 25.0853 34.2109 25.0625 34.1869L25.0601 34.1845C24.7985 33.9505 24.5453 33.7093 24.2945 33.4657C24.2897 33.4609 24.2021 33.3733 24.1973 33.3685L24.0797 33.2485C23.8361 33.0037 23.5889 32.7505 23.3585 32.4889C22.6937 31.8889 22.1717 31.1197 21.7085 30.4393L21.5465 30.2029C20.9945 29.4085 20.4821 28.5397 20.0285 27.6301C17.1269 21.8917 17.3717 15.0925 20.6537 10.3165C20.6657 10.2997 20.6777 10.2841 20.6897 10.2673C20.7677 10.1653 22.6241 7.74854 24.4397 6.26774C24.8885 5.90054 25.5353 5.90774 25.9769 6.28454C26.4185 6.66014 26.5277 7.29734 26.2373 7.79894C23.9957 11.6713 23.2541 15.9217 24.2537 19.1701C25.3253 22.7077 27.6161 26.0113 30.7061 28.4797L30.8381 28.5877C31.1753 28.8493 31.4597 29.0665 31.7513 29.2717C31.8785 29.3581 32.0141 29.4469 32.1533 29.5381C32.1641 29.5453 32.2577 29.6089 32.2685 29.6149L32.3801 29.6881C32.5421 29.7973 32.7161 29.9029 32.8889 30.0073L33.0041 30.0781L33.1217 30.1441C33.3305 30.2689 33.4721 30.3529 33.6245 30.4321L34.3073 30.7885C34.5545 30.9085 34.8341 31.0417 35.1161 31.1653L35.2757 31.2337C35.5097 31.3393 35.7005 31.4137 35.8937 31.4905L36.2285 31.6177C36.4625 31.7053 36.6689 31.7773 36.8753 31.8433C36.9749 31.8781 37.0289 31.8985 37.0889 31.9153C37.4489 32.0317 37.7405 32.1181 38.0393 32.1949C44.5037 33.8965 50.8493 31.8253 54.2069 26.9209C54.5393 26.4349 55.1765 26.2609 55.7105 26.5141C56.2433 26.7661 56.5133 27.3685 56.3489 27.9349C56.3153 28.0489 52.8713 39.3025 39.6233 39.5929C39.4505 39.5965 39.2741 39.5989 39.0953 39.5989Z" fill="#1C1C1C"/>
<path d="M44.809 25.1989C44.6626 25.1989 44.5138 25.1965 44.3638 25.1929C43.489 25.1653 42.5638 25.0561 41.6134 24.8677C41.4214 24.8293 41.2318 24.7693 41.0434 24.7069L40.909 24.6625C40.885 24.6553 40.7086 24.5989 40.6858 24.5905C40.4794 24.5173 40.3594 24.4753 40.2394 24.4285C36.6238 23.0725 33.583 20.1625 32.125 16.6537C31.4962 15.1417 31.1842 13.5721 31.1998 11.9857C31.2214 9.87127 31.8418 7.83847 32.9974 6.10567C33.0094 6.08647 33.0226 6.06847 33.037 6.04927C33.2614 5.75047 34.435 4.23367 35.4658 3.72367C35.947 3.48487 36.529 3.59527 36.8902 3.99367C37.2514 4.39207 37.3018 4.98127 37.0162 5.43607C34.8766 8.84407 36.3106 14.7457 39.9658 17.5813C40.5862 18.0613 41.269 18.4897 41.9962 18.8509C42.3634 19.0273 42.7534 19.1929 43.1482 19.3369C43.4494 19.4485 43.7866 19.5625 44.095 19.6393C48.2518 20.6725 51.2506 19.8865 53.0074 17.3053L53.0098 17.3029C53.3842 16.7557 54.1282 16.6165 54.6766 16.9885C55.2238 17.3617 55.3654 18.1081 54.9934 18.6553C54.991 18.6577 54.9898 18.6613 54.9874 18.6637C54.9358 18.7393 54.8722 18.8605 54.7894 19.0129C53.9386 20.5597 51.3898 25.1989 44.809 25.1989Z" fill="#1C1C1C"/>
</svg>
