<svg width="60" height="60" viewBox="0 0 60 60" fill="none" xmlns="http://www.w3.org/2000/svg">
<path d="M52.5 21.624C52.5 47.249 30 54.999 30 54.999C30 54.999 7.5 47.249 7.5 21.624C7.5 18.499 7.75 15.874 8 13.749C8.375 10.624 10.5 8.12402 13.5 7.37402C17.375 6.24902 23.5 4.99902 30 4.99902C36.5 4.99902 42.625 6.24902 46.625 7.37402C49.625 8.12402 51.75 10.749 52.125 13.749C52.25 15.874 52.5 18.624 52.5 21.624Z" fill="#1C1C1C"/>
<path d="M30 8.74902C36.125 8.74902 41.875 9.99902 45.625 10.999C47.125 11.374 48.125 12.624 48.375 14.249C48.625 16.624 48.75 19.124 48.75 21.624C48.75 41.124 34.375 48.999 30 50.874C25.625 48.874 11.25 40.999 11.25 21.624C11.25 19.124 11.375 16.624 11.625 14.249C11.75 12.624 12.875 11.374 14.375 10.999C18.125 9.99902 23.875 8.74902 30 8.74902ZM30 4.99902C23.5 4.99902 17.375 6.24902 13.375 7.37402C10.5 8.12402 8.25 10.749 8 13.749C7.75 15.874 7.5 18.624 7.5 21.624C7.5 47.249 30 54.999 30 54.999C30 54.999 52.5 47.249 52.5 21.624C52.5 18.499 52.25 15.874 52 13.749C51.625 10.624 49.5 8.12402 46.5 7.37402C42.625 6.24902 36.5 4.99902 30 4.99902Z" fill="#292929"/>
<path d="M31.25 34.999H28.75V44.999H31.25V34.999Z" fill="#3D3D3D"/>
<path d="M30 12.499C30 12.499 22.5 18.749 22.5 28.749C22.5 35.249 26.625 39.374 28.75 41.249L30 37.499L31.25 41.249C33.375 39.374 37.5 35.249 37.5 28.749C37.5 18.749 30 12.499 30 12.499Z" fill="#292929"/>
<path d="M30 12.499C30 12.499 22.5 18.749 22.5 28.749C22.5 35.249 26.625 39.374 28.75 41.249L30 37.499V12.499Z" fill="#141414"/>
</svg>
