<svg width="60" height="60" viewBox="0 0 60 60" fill="none" xmlns="http://www.w3.org/2000/svg">
<path d="M21.505 23.9016L15.3712 27.2954C15.1412 27.4216 15 27.6566 15 27.9104V34.7016C15 34.9554 15.1412 35.1891 15.3712 35.3166L21.5062 38.7129C21.735 38.8391 22.0188 38.8391 22.2475 38.7129L28.3813 35.3166C28.6088 35.1891 28.75 34.9554 28.75 34.7016V27.9104C28.75 27.6566 28.6087 27.4229 28.3787 27.2954L22.2463 23.9016C22.1313 23.8379 22.0025 23.8066 21.875 23.8066C21.7463 23.8066 21.6187 23.8379 21.5037 23.9016" fill="#3D3D3D"/>
<path d="M53.0642 30.0153L52.0417 30.5803C52.003 30.6015 51.9805 30.6403 51.9805 30.6828V31.8153C51.9805 31.8578 52.0042 31.8965 52.0417 31.9178L53.0642 32.484C53.103 32.5053 53.1492 32.5053 53.188 32.484L54.2105 31.9178C54.248 31.8965 54.2717 31.8578 54.2717 31.8153V30.6828C54.2717 30.6403 54.248 30.6015 54.2092 30.5803L53.1867 30.0153C53.168 30.004 53.1467 29.999 53.1255 29.999C53.1042 29.999 53.083 30.004 53.0642 30.0153Z" fill="#3D3D3D"/>
<path d="M44.6887 16.7037L41.7025 15.0375C41.6087 14.985 41.4937 14.9862 41.4012 15.0412C41.3087 15.0962 41.2512 15.195 41.2512 15.3025L41.25 25.3675L38.4963 23.8437C38.3813 23.78 38.2525 23.7487 38.125 23.7487C37.9975 23.7487 37.8687 23.78 37.7537 23.8437H37.755L31.6213 27.2375C31.3913 27.3637 31.25 27.5987 31.25 27.8512V34.6425C31.25 34.8962 31.3913 35.13 31.6213 35.2575L37.7562 38.6537C37.985 38.78 38.2688 38.78 38.4975 38.6537L44.6313 35.2575C44.8588 35.1312 45 34.8962 45 34.6425V17.2337C45 17.0137 44.88 16.8112 44.6887 16.7037ZM41.0825 33.0712L38.295 34.615C38.1912 34.6725 38.0625 34.6725 37.9588 34.615L35.17 33.0712C35.0637 33.0137 35 32.9062 35 32.7912V29.7037C35 29.5887 35.0638 29.4825 35.1688 29.4237L37.9575 27.8812C38.01 27.8525 38.0662 27.8387 38.125 27.8387C38.1838 27.8387 38.2413 27.8537 38.2938 27.8812L41.0813 29.4237C41.1863 29.4825 41.25 29.59 41.25 29.705V32.7925C41.25 32.9062 41.1863 33.0137 41.0825 33.0712Z" fill="#3D3D3D"/>
<path d="M21.505 23.9016L15 34.7016C15 34.9554 15.1412 35.1891 15.3712 35.3166L21.5062 38.7129C21.735 38.8391 22.0188 38.8391 22.2475 38.7129L28.75 27.9104C28.75 27.6566 28.6087 27.4229 28.3787 27.2954L22.2463 23.9016C22.1313 23.8379 22.0025 23.8066 21.875 23.8066C21.7463 23.8066 21.6187 23.8379 21.5037 23.9016" fill="#3D3D3D"/>
<path d="M21.505 23.9016L15.3712 27.2954C15.1412 27.4216 15 27.6566 15 27.9104L21.505 38.7129C21.7338 38.8391 22.0175 38.8391 22.2463 38.7129L28.38 35.3166C28.6088 35.1891 28.75 34.9554 28.75 34.7016L22.2463 23.9016C22.1313 23.8379 22.0025 23.8066 21.875 23.8066C21.7463 23.8066 21.6187 23.8379 21.5037 23.9016" fill="#3D3D3D"/>
<path d="M59.6287 27.2378L53.4963 23.844C53.3813 23.7803 53.2525 23.749 53.125 23.749C52.9975 23.749 52.8687 23.7803 52.7537 23.844L46.6213 27.2378C46.3925 27.364 46.25 27.604 46.25 27.8665V34.6303C46.25 34.8915 46.3925 35.1328 46.6213 35.259L52.7563 38.6553C52.9863 38.7828 53.2675 38.7828 53.4975 38.6553L56.3263 37.089C56.585 36.9453 56.5837 36.574 56.3237 36.4315L50.1687 33.0728C50.065 33.014 50 32.9053 50 32.7878V29.7053C50 29.5903 50.0625 29.484 50.1625 29.429L52.9563 27.884H52.955C53.0075 27.8553 53.065 27.8415 53.1238 27.8415C53.1825 27.8415 53.24 27.8565 53.2925 27.884L56.0862 29.4303C56.1862 29.4853 56.2488 29.5915 56.2488 29.7065V32.2215C56.2488 32.329 56.3062 32.429 56.4 32.4828C56.4937 32.5353 56.6087 32.5353 56.7025 32.4815L59.7 30.7403C59.885 30.6328 60 30.434 60 30.219V27.869C60 27.6053 59.8575 27.364 59.6287 27.2378Z" fill="#3D3D3D"/>
<path d="M13.3787 27.2378L7.24625 23.844C7.13125 23.7803 7.0025 23.749 6.875 23.749C6.7475 23.749 6.61875 23.7803 6.50375 23.844L0.37125 27.2378C0.1425 27.364 0 27.604 0 27.8665V37.1978C0 37.3053 0.0575 37.4053 0.15125 37.459C0.245 37.5115 0.36 37.5115 0.45375 37.4578L3.45125 35.7165C3.63625 35.609 3.75 35.4103 3.75 35.1953V29.704C3.75 29.589 3.8125 29.4828 3.9125 29.4278L6.70625 27.8828C6.75875 27.854 6.81625 27.8403 6.875 27.8403C6.93375 27.8403 6.99125 27.8553 7.04375 27.8828L9.8375 29.429C9.9375 29.484 10 29.5903 10 29.7053V35.1965C10 35.4115 10.1137 35.6103 10.3 35.7178L13.2975 37.459C13.3912 37.5128 13.5063 37.5128 13.6 37.4603C13.6925 37.4053 13.75 37.3053 13.75 37.1978V27.8678C13.75 27.6053 13.6075 27.364 13.3787 27.2378Z" fill="#3D3D3D"/>
</svg>
