<svg width="60" height="60" viewBox="0 0 60 60" fill="none" xmlns="http://www.w3.org/2000/svg">
<path d="M30.0002 34.7992C32.6512 34.7992 34.8002 32.6502 34.8002 29.9992C34.8002 27.3483 32.6512 25.1992 30.0002 25.1992C27.3492 25.1992 25.2002 27.3483 25.2002 29.9992C25.2002 32.6502 27.3492 34.7992 30.0002 34.7992Z" fill="url(#paint0_linear_451_187)"/>
<path d="M30.0002 34.7992C32.6512 34.7992 34.8002 32.6502 34.8002 29.9992C34.8002 27.3483 32.6512 25.1992 30.0002 25.1992C27.3492 25.1992 25.2002 27.3483 25.2002 29.9992C25.2002 32.6502 27.3492 34.7992 30.0002 34.7992Z" stroke="url(#paint1_linear_451_187)" stroke-width="2" stroke-miterlimit="10" stroke-linejoin="round"/>
<path d="M38.8938 35.1384C46.3609 22.2054 48.4161 9.41275 43.4843 6.56528C38.5525 3.71781 28.5012 11.8938 21.0341 24.8268C13.567 37.7598 11.5117 50.5525 16.4435 53.3999C21.3753 56.2474 31.4266 48.0714 38.8938 35.1384Z" stroke="url(#paint2_linear_451_187)" stroke-width="2.0431"/>
<path d="M56.3996 29.5108C56.3996 35.2024 44.57 39.8224 29.9996 39.8224C15.4292 39.8224 3.59961 35.2024 3.59961 29.5108C3.59961 23.8192 15.4292 19.1992 29.9996 19.1992C44.57 19.1992 56.3996 23.8192 56.3996 29.5108Z" stroke="url(#paint3_linear_451_187)" stroke-width="2.019"/>
<path d="M43.4951 53.4328C48.4269 50.5853 46.3716 37.7927 38.9045 24.8596C31.4374 11.9266 21.3861 3.75064 16.4543 6.59811C11.5224 9.44558 13.5777 22.2382 21.0448 35.1712C28.5119 48.1043 38.5632 56.2802 43.4951 53.4328Z" stroke="url(#paint4_linear_451_187)" stroke-width="2"/>
<defs>
<linearGradient id="paint0_linear_451_187" x1="30.0002" y1="25.1992" x2="30.0002" y2="34.7992" gradientUnits="userSpaceOnUse">
<stop stop-color="#E02093"/>
<stop offset="1" stop-color="#BE0273"/>
</linearGradient>
<linearGradient id="paint1_linear_451_187" x1="30.0002" y1="25.1992" x2="30.0002" y2="34.7992" gradientUnits="userSpaceOnUse">
<stop stop-color="#E02093"/>
<stop offset="1" stop-color="#BE0273"/>
</linearGradient>
<linearGradient id="paint2_linear_451_187" x1="21.0341" y1="24.8268" x2="38.8938" y2="35.1384" gradientUnits="userSpaceOnUse">
<stop stop-color="#E02093"/>
<stop offset="1" stop-color="#BE0273"/>
</linearGradient>
<linearGradient id="paint3_linear_451_187" x1="29.9996" y1="19.1992" x2="29.9996" y2="39.8224" gradientUnits="userSpaceOnUse">
<stop stop-color="#E02093"/>
<stop offset="1" stop-color="#BE0273"/>
</linearGradient>
<linearGradient id="paint4_linear_451_187" x1="16.4543" y1="6.59811" x2="43.4951" y2="53.4328" gradientUnits="userSpaceOnUse">
<stop stop-color="#E02093"/>
<stop offset="1" stop-color="#BE0273"/>
</linearGradient>
</defs>
</svg>
