<svg width="60" height="60" viewBox="0 0 60 60" fill="none" xmlns="http://www.w3.org/2000/svg">
<g clip-path="url(#clip0_452_225)">
<path d="M51.6363 33.3612C49.5399 33.372 47.7231 33.876 46.2003 34.626C45.6435 33.5148 45.0795 32.5368 44.9847 31.8096C44.8743 30.9612 44.7459 30.4548 44.8791 29.4432C45.0123 28.4316 45.5979 27 45.5883 26.8932C45.5799 26.7864 45.4575 26.2716 44.2479 26.262C43.0383 26.2536 42.0039 26.4948 41.8815 26.814C41.7591 27.1332 41.5263 27.852 41.3823 28.602C41.1699 29.6988 38.9679 33.6108 37.7163 35.6568C37.3071 34.8576 36.9591 34.1544 36.8871 33.5976C36.7767 32.7492 36.6483 32.2428 36.7815 31.2312C36.9147 30.2196 37.5003 28.788 37.4907 28.6812C37.4823 28.5744 37.3599 28.0596 36.1503 28.05C34.9407 28.0416 33.9063 28.2828 33.7839 28.602C33.6615 28.9212 33.5319 29.6676 33.2847 30.39C33.0363 31.1124 30.1083 37.6368 29.3415 39.3276C28.9503 40.1892 28.6107 40.8816 28.3707 41.3544L28.3695 41.352C28.3695 41.352 28.3551 41.3832 28.3287 41.4372C28.1235 41.8392 28.0011 42.0624 28.0011 42.0624C28.0011 42.0624 28.0023 42.066 28.0047 42.0708C27.8415 42.366 27.6675 42.6408 27.5811 42.6408C27.5211 42.6408 27.3999 41.8536 27.6075 40.7748C28.0431 38.5116 29.0895 34.9812 29.0799 34.86C29.0751 34.7976 29.2743 34.1832 28.3959 33.8604C27.5427 33.5484 27.2379 34.0692 27.1599 34.0704C27.0843 34.0716 27.0279 34.254 27.0279 34.254C27.0279 34.254 27.9795 30.2844 25.2135 30.2844C23.4855 30.2844 21.0903 32.1756 19.9095 33.8892C19.1655 34.2948 17.5719 35.1648 15.8811 36.0936C15.2319 36.45 14.5695 36.8148 13.9407 37.1616C13.8975 37.1148 13.8555 37.0668 13.8111 37.02C10.4583 33.4428 4.26148 30.9132 4.52428 26.1048C4.62028 24.3564 5.22748 19.7532 16.4331 14.1696C25.6119 9.59518 32.9607 10.854 34.2303 13.644C36.0447 17.6292 30.3027 25.0368 20.7711 26.1048C17.1387 26.5116 15.2271 25.104 14.7507 24.5796C14.2503 24.0276 14.1759 24.0024 13.9887 24.1068C13.6839 24.276 13.8771 24.7632 13.9887 25.0536C14.2731 25.794 15.4407 27.108 17.4327 27.7608C19.1847 28.3356 23.4483 28.6512 28.6059 26.6568C34.3815 24.4224 38.8911 18.2076 37.5675 13.0128C36.2199 7.72918 27.4599 5.99278 19.1691 8.93758C14.2347 10.6908 8.89348 13.4424 5.05228 17.034C0.48508 21.306 -0.24212 25.0236 0.05788 26.5764C1.12468 32.0964 8.73148 35.6904 11.7783 38.3544C11.6283 38.4372 11.4867 38.5152 11.3583 38.586C9.83068 39.342 4.03228 42.3768 2.58148 45.5832C0.93628 49.2204 2.84308 51.8304 4.10668 52.182C8.01868 53.2704 12.0339 51.312 14.1915 48.0936C16.3491 44.8764 16.0851 40.6872 15.0951 38.7744C15.0831 38.7504 15.0687 38.7276 15.0567 38.7036C15.4515 38.4696 15.8535 38.2332 16.2519 37.9992C17.0295 37.5432 17.7927 37.1172 18.4551 36.756C18.0843 37.7712 17.8131 38.988 17.6715 40.746C17.5059 42.8112 18.3519 45.48 19.4595 46.53C19.9467 46.992 20.5335 47.0028 20.9055 47.0028C22.1943 47.0028 22.7823 45.9312 23.4291 44.6628C24.2235 43.1076 24.9279 41.298 24.9279 41.298C24.9279 41.298 24.0435 46.188 26.4531 46.188C27.3303 46.188 28.2135 45.0492 28.6071 44.4696C28.6083 44.4756 28.6083 44.4792 28.6083 44.4792C28.6083 44.4792 28.6311 44.442 28.6755 44.3652C28.7667 44.226 28.8183 44.1372 28.8183 44.1372C28.8183 44.1372 28.8207 44.1276 28.8231 44.112C29.1759 43.5 29.9583 42.1032 31.1319 39.7992C32.6475 36.8232 34.1019 33.096 34.1019 33.096C34.1019 33.096 34.2375 34.008 34.6803 35.514C34.9407 36.4008 35.4951 37.3812 35.9319 38.3208C35.5803 38.8092 35.3643 39.0888 35.3643 39.0888C35.3643 39.0888 35.3667 39.0936 35.3703 39.1032C35.0895 39.4764 34.7739 39.8784 34.4439 40.272C33.2475 41.6976 31.8219 43.3248 31.6311 43.7952C31.4067 44.3484 31.4595 44.7564 31.8939 45.0828C32.2107 45.3216 32.7759 45.3588 33.3663 45.3192C34.4415 45.2472 35.1987 44.9796 35.5719 44.8176C36.1539 44.6124 36.8319 44.2884 37.4679 43.8204C38.6415 42.9576 39.3495 41.7228 39.2823 40.0872C39.2451 39.186 38.9571 38.2932 38.5935 37.4496C38.7003 37.296 38.8071 37.1424 38.9139 36.9852C40.7643 34.2792 42.1995 31.3068 42.1995 31.3068C42.1995 31.3068 42.3351 32.2188 42.7779 33.7248C43.0023 34.488 43.4451 35.3196 43.8423 36.1356C42.1023 37.5492 41.0235 39.192 40.6479 40.2696C39.9555 42.2628 40.4979 43.1664 41.5155 43.3716C41.9763 43.4652 42.6279 43.254 43.1175 43.0464C43.7271 42.8448 44.4591 42.5076 45.1431 42.0048C46.3167 41.142 47.4459 39.9336 47.3775 38.298C47.3463 37.554 47.1447 36.8148 46.8711 36.1044C48.3459 35.49 50.2563 35.148 52.6887 35.4324C57.9075 36.042 58.9311 39.3 58.7355 40.6632C58.5399 42.0276 57.4455 42.7764 57.0795 43.0032C56.7135 43.23 56.6019 43.308 56.6331 43.476C56.6775 43.7208 56.8467 43.7112 57.1587 43.6584C57.5883 43.5864 59.8983 42.5496 59.9979 40.032C60.1227 36.8424 57.0603 33.3324 51.6363 33.3612ZM11.4147 46.9212C9.68668 48.8064 7.27108 49.5192 6.23548 48.9192C5.11708 48.2712 5.55988 45.4944 7.68148 43.494C8.97388 42.2748 10.6431 41.1516 11.7507 40.4592C12.0027 40.308 12.3723 40.0848 12.8223 39.8148C12.8967 39.7728 12.9387 39.7488 12.9387 39.7488L12.9375 39.7464C13.0239 39.6948 13.1139 39.6408 13.2051 39.5856C13.9767 42.4344 13.2291 44.9424 11.4147 46.9212ZM24.0063 38.3604C23.4039 39.828 22.1439 43.5828 21.3771 43.3812C20.7183 43.2084 20.3175 40.3536 21.2451 37.5456C21.7119 36.132 22.7091 34.4424 23.2959 33.786C24.2391 32.7312 25.2783 32.3856 25.5303 32.814C25.8531 33.3588 24.3843 37.44 24.0063 38.3604ZM34.4103 43.3248C34.1547 43.458 33.9207 43.542 33.8127 43.4772C33.7323 43.4292 33.9183 43.254 33.9183 43.254C33.9183 43.254 35.2191 41.8536 35.7327 41.2164C36.0303 40.8456 36.3771 40.4052 36.7527 39.9132C36.7563 39.9624 36.7575 40.0116 36.7575 40.0596C36.7527 41.7372 35.1327 42.8688 34.4103 43.3248ZM42.4251 41.4972C42.2343 41.3616 42.2667 40.9236 42.8919 39.5604C43.1379 39.0252 43.6983 38.1228 44.6739 37.2612C44.7867 37.6152 44.8563 37.9548 44.8539 38.2716C44.8407 40.3824 43.3347 41.1708 42.4251 41.4972Z" fill="#3D3D3D"/>
</g>
<defs>
<clipPath id="clip0_452_225">
<rect width="60" height="60" fill="white" transform="translate(0 -0.000976562)"/>
</clipPath>
</defs>
</svg>
