<svg width="60" height="60" viewBox="0 0 60 60" fill="none" xmlns="http://www.w3.org/2000/svg">
<path d="M52.5 46.249C52.5 49.7015 49.7025 52.499 46.25 52.499H13.75C10.2988 52.499 7.5 49.7015 7.5 46.249V13.749C7.5 10.2965 10.2988 7.49902 13.75 7.49902H46.25C49.7025 7.49902 52.5 10.2965 52.5 13.749V46.249Z" fill="#292929"/>
<path d="M41.2875 31.999C40.475 30.874 39.3 30.099 37.7875 29.6865C37.7875 29.6865 39.0625 29.224 40.2125 27.499C40.9 26.399 41.25 25.074 41.25 23.524C41.25 20.8365 40.275 18.774 38.325 17.3615C36.375 15.949 34.175 14.999 30.4375 14.999H18.75V44.999H31.7875C35.325 44.974 37.9875 44.2115 39.8 42.749C41.6 41.2615 42.5 39.0615 42.5 36.124C42.5 34.499 42.1 33.124 41.2875 31.999ZM26.25 19.999C26.25 19.999 31.4625 19.999 31.5625 19.999C33.4625 19.999 35 21.5365 35 23.4365C35 25.3365 33.4625 26.874 31.5625 26.874C31.4625 26.874 26.25 26.874 26.25 26.874V19.999ZM32.5 39.999H26.25V32.499H32.5C34.575 32.499 36.25 34.174 36.25 36.249C36.25 38.324 34.575 39.999 32.5 39.999Z" fill="#3D3D3D"/>
</svg>
