<svg width="60" height="60" viewBox="0 0 60 60" fill="none" xmlns="http://www.w3.org/2000/svg">
<g clip-path="url(#clip0_452_254)">
<path d="M21.3996 12.3486L6.34961 38.3486L13.8621 2.86612C14.1046 1.72362 15.6421 1.50612 16.1896 2.53862L21.3996 12.3486Z" fill="#1C1C1C"/>
<path d="M24.1746 17.5488L27.1746 23.1738L13.3496 36.2488L24.1746 17.5488Z" fill="#1C1C1C"/>
<path d="M35.4 15.3739L30.925 19.6239L27.125 12.4739L29.5575 8.28892C30.0525 7.43642 31.2925 7.46642 31.7475 8.34142L35.4 15.3739Z" fill="#1C1C1C"/>
<path d="M52.8252 46.8486L30.8252 59.6486C30.4502 59.8986 30.0002 59.9986 29.5752 59.9986C29.1502 59.9986 28.7002 59.8986 28.3252 59.6736L8.2002 48.0486L46.6177 11.6411C47.3452 10.9511 48.5452 11.3561 48.7102 12.3436L54.0252 44.2736C54.2002 45.2986 53.7252 46.3236 52.8252 46.8486Z" fill="#1C1C1C"/>
</g>
<defs>
<clipPath id="clip0_452_254">
<rect width="60" height="60" fill="white" transform="translate(0 -0.000976562)"/>
</clipPath>
</defs>
</svg>
